<mxfile host="Electron" agent="Mozilla/5.0 (Windows NT 10.0; Win64; x64) AppleWebKit/537.36 (KHTML, like Gecko) draw.io/27.0.9 Chrome/134.0.6998.205 Electron/35.4.0 Safari/537.36" version="27.0.9">
  <diagram name="Page-1" id="bpz4zi6QxDov5i1jrVHP">
    <mxGraphModel dx="2160" dy="2040" grid="1" gridSize="10" guides="1" tooltips="1" connect="1" arrows="1" fold="1" page="1" pageScale="1" pageWidth="850" pageHeight="1100" math="0" shadow="0">
      <root>
        <mxCell id="0" />
        <mxCell id="1" parent="0" />
        <mxCell id="XHNnthec9TQgOVZhXkJ_-55" style="edgeStyle=orthogonalEdgeStyle;rounded=0;orthogonalLoop=1;jettySize=auto;html=1;exitX=1;exitY=0;exitDx=0;exitDy=0;entryX=0;entryY=0.5;entryDx=0;entryDy=0;" edge="1" parent="1" source="XHNnthec9TQgOVZhXkJ_-10" target="XHNnthec9TQgOVZhXkJ_-48">
          <mxGeometry relative="1" as="geometry" />
        </mxCell>
        <mxCell id="XHNnthec9TQgOVZhXkJ_-10" value="Customers" style="swimlane;fontStyle=1;align=center;verticalAlign=top;childLayout=stackLayout;horizontal=1;startSize=26;horizontalStack=0;resizeParent=1;resizeParentMax=0;resizeLast=0;collapsible=1;marginBottom=0;whiteSpace=wrap;html=1;" vertex="1" parent="1">
          <mxGeometry y="-410" width="180" height="158" as="geometry">
            <mxRectangle x="100" y="-400" width="100" height="30" as="alternateBounds" />
          </mxGeometry>
        </mxCell>
        <mxCell id="XHNnthec9TQgOVZhXkJ_-11" value="- age : int&lt;div&gt;- email : String&lt;/div&gt;&lt;div&gt;- homeAddress : String&lt;/div&gt;&lt;div&gt;- name : String&lt;/div&gt;&lt;div&gt;- password : String&lt;/div&gt;&lt;span style=&quot;background-color: transparent; color: light-dark(rgb(0, 0, 0), rgb(255, 255, 255));&quot;&gt;- phoneNumber : String&lt;/span&gt;&lt;div&gt;- billingInfo : billing&lt;div&gt;- shoppingcart :&amp;nbsp;&lt;span style=&quot;background-color: transparent; color: light-dark(rgb(0, 0, 0), rgb(255, 255, 255));&quot;&gt;shoppingCart&lt;/span&gt;&lt;span style=&quot;background-color: transparent; color: light-dark(rgb(0, 0, 0), rgb(255, 255, 255));&quot;&gt;&amp;nbsp;&lt;/span&gt;&lt;/div&gt;&lt;/div&gt;" style="text;strokeColor=none;fillColor=none;align=left;verticalAlign=top;spacingLeft=4;spacingRight=4;overflow=hidden;rotatable=0;points=[[0,0.5],[1,0.5]];portConstraint=eastwest;whiteSpace=wrap;html=1;" vertex="1" parent="XHNnthec9TQgOVZhXkJ_-10">
          <mxGeometry y="26" width="180" height="124" as="geometry" />
        </mxCell>
        <mxCell id="XHNnthec9TQgOVZhXkJ_-12" value="" style="line;strokeWidth=1;fillColor=none;align=left;verticalAlign=middle;spacingTop=-1;spacingLeft=3;spacingRight=3;rotatable=0;labelPosition=right;points=[];portConstraint=eastwest;strokeColor=inherit;" vertex="1" parent="XHNnthec9TQgOVZhXkJ_-10">
          <mxGeometry y="150" width="180" height="8" as="geometry" />
        </mxCell>
        <mxCell id="XHNnthec9TQgOVZhXkJ_-14" value="Sellers" style="swimlane;fontStyle=1;align=center;verticalAlign=top;childLayout=stackLayout;horizontal=1;startSize=26;horizontalStack=0;resizeParent=1;resizeParentMax=0;resizeLast=0;collapsible=1;marginBottom=0;whiteSpace=wrap;html=1;" vertex="1" parent="1">
          <mxGeometry x="285" y="-400" width="160" height="138" as="geometry">
            <mxRectangle x="285" y="-400" width="80" height="30" as="alternateBounds" />
          </mxGeometry>
        </mxCell>
        <mxCell id="XHNnthec9TQgOVZhXkJ_-15" value="- age : int&lt;div&gt;- email : String&lt;/div&gt;&lt;div&gt;- homeAddress : String&lt;/div&gt;&lt;div&gt;- name : String&lt;/div&gt;&lt;div&gt;- password : String&lt;/div&gt;&lt;div&gt;- phoneNumber : String&lt;/div&gt;" style="text;strokeColor=none;fillColor=none;align=left;verticalAlign=top;spacingLeft=4;spacingRight=4;overflow=hidden;rotatable=0;points=[[0,0.5],[1,0.5]];portConstraint=eastwest;whiteSpace=wrap;html=1;" vertex="1" parent="XHNnthec9TQgOVZhXkJ_-14">
          <mxGeometry y="26" width="160" height="104" as="geometry" />
        </mxCell>
        <mxCell id="XHNnthec9TQgOVZhXkJ_-16" value="" style="line;strokeWidth=1;fillColor=none;align=left;verticalAlign=middle;spacingTop=-1;spacingLeft=3;spacingRight=3;rotatable=0;labelPosition=right;points=[];portConstraint=eastwest;strokeColor=inherit;" vertex="1" parent="XHNnthec9TQgOVZhXkJ_-14">
          <mxGeometry y="130" width="160" height="8" as="geometry" />
        </mxCell>
        <mxCell id="XHNnthec9TQgOVZhXkJ_-57" style="edgeStyle=orthogonalEdgeStyle;rounded=0;orthogonalLoop=1;jettySize=auto;html=1;exitX=0;exitY=0;exitDx=0;exitDy=0;entryX=1;entryY=0.5;entryDx=0;entryDy=0;" edge="1" parent="1" source="XHNnthec9TQgOVZhXkJ_-18" target="XHNnthec9TQgOVZhXkJ_-48">
          <mxGeometry relative="1" as="geometry" />
        </mxCell>
        <mxCell id="XHNnthec9TQgOVZhXkJ_-18" value="Admin" style="swimlane;fontStyle=1;align=center;verticalAlign=top;childLayout=stackLayout;horizontal=1;startSize=26;horizontalStack=0;resizeParent=1;resizeParentMax=0;resizeLast=0;collapsible=1;marginBottom=0;whiteSpace=wrap;html=1;" vertex="1" parent="1">
          <mxGeometry x="560" y="-390" width="160" height="128" as="geometry">
            <mxRectangle x="440" y="-400" width="70" height="30" as="alternateBounds" />
          </mxGeometry>
        </mxCell>
        <mxCell id="XHNnthec9TQgOVZhXkJ_-19" value="- age : int&lt;div&gt;- email : String&lt;/div&gt;&lt;div&gt;- homeAddress : String&lt;/div&gt;&lt;div&gt;- name : String&lt;/div&gt;&lt;div&gt;- password : String&lt;/div&gt;&lt;div&gt;- phoneNumber : String&lt;/div&gt;" style="text;strokeColor=none;fillColor=none;align=left;verticalAlign=top;spacingLeft=4;spacingRight=4;overflow=hidden;rotatable=0;points=[[0,0.5],[1,0.5]];portConstraint=eastwest;whiteSpace=wrap;html=1;" vertex="1" parent="XHNnthec9TQgOVZhXkJ_-18">
          <mxGeometry y="26" width="160" height="94" as="geometry" />
        </mxCell>
        <mxCell id="XHNnthec9TQgOVZhXkJ_-20" value="" style="line;strokeWidth=1;fillColor=none;align=left;verticalAlign=middle;spacingTop=-1;spacingLeft=3;spacingRight=3;rotatable=0;labelPosition=right;points=[];portConstraint=eastwest;strokeColor=inherit;" vertex="1" parent="XHNnthec9TQgOVZhXkJ_-18">
          <mxGeometry y="120" width="160" height="8" as="geometry" />
        </mxCell>
        <mxCell id="XHNnthec9TQgOVZhXkJ_-22" value="Billing" style="swimlane;fontStyle=1;align=center;verticalAlign=top;childLayout=stackLayout;horizontal=1;startSize=26;horizontalStack=0;resizeParent=1;resizeParentMax=0;resizeLast=0;collapsible=1;marginBottom=0;whiteSpace=wrap;html=1;" vertex="1" parent="1">
          <mxGeometry x="270" y="-180" width="160" height="118" as="geometry">
            <mxRectangle x="270" y="-180" width="70" height="30" as="alternateBounds" />
          </mxGeometry>
        </mxCell>
        <mxCell id="XHNnthec9TQgOVZhXkJ_-23" value="- receiver&#39;s phone : String&lt;div&gt;- receiver&#39;s name : String&lt;/div&gt;&lt;div&gt;- deliveryAddress : String&lt;/div&gt;&lt;div&gt;- credit cardInfo : CreditCard&lt;/div&gt;" style="text;strokeColor=none;fillColor=none;align=left;verticalAlign=top;spacingLeft=4;spacingRight=4;overflow=hidden;rotatable=0;points=[[0,0.5],[1,0.5]];portConstraint=eastwest;whiteSpace=wrap;html=1;" vertex="1" parent="XHNnthec9TQgOVZhXkJ_-22">
          <mxGeometry y="26" width="160" height="84" as="geometry" />
        </mxCell>
        <mxCell id="XHNnthec9TQgOVZhXkJ_-24" value="" style="line;strokeWidth=1;fillColor=none;align=left;verticalAlign=middle;spacingTop=-1;spacingLeft=3;spacingRight=3;rotatable=0;labelPosition=right;points=[];portConstraint=eastwest;strokeColor=inherit;" vertex="1" parent="XHNnthec9TQgOVZhXkJ_-22">
          <mxGeometry y="110" width="160" height="8" as="geometry" />
        </mxCell>
        <mxCell id="XHNnthec9TQgOVZhXkJ_-61" style="edgeStyle=orthogonalEdgeStyle;rounded=0;orthogonalLoop=1;jettySize=auto;html=1;exitX=0;exitY=0.5;exitDx=0;exitDy=0;entryX=-0.019;entryY=0.79;entryDx=0;entryDy=0;entryPerimeter=0;" edge="1" parent="1" source="XHNnthec9TQgOVZhXkJ_-26" target="XHNnthec9TQgOVZhXkJ_-52">
          <mxGeometry relative="1" as="geometry">
            <Array as="points">
              <mxPoint x="-250" y="-163" />
              <mxPoint x="-250" y="-220" />
              <mxPoint x="-280" y="-220" />
              <mxPoint x="-280" y="-287" />
            </Array>
          </mxGeometry>
        </mxCell>
        <mxCell id="XHNnthec9TQgOVZhXkJ_-26" value="Item" style="swimlane;fontStyle=1;align=center;verticalAlign=top;childLayout=stackLayout;horizontal=1;startSize=26;horizontalStack=0;resizeParent=1;resizeParentMax=0;resizeLast=0;collapsible=1;marginBottom=0;whiteSpace=wrap;html=1;" vertex="1" parent="1">
          <mxGeometry x="-190" y="-210" width="160" height="68" as="geometry">
            <mxRectangle x="-40" y="540" width="70" height="30" as="alternateBounds" />
          </mxGeometry>
        </mxCell>
        <mxCell id="XHNnthec9TQgOVZhXkJ_-27" value="- quantityOfProduct : int&lt;div&gt;- product : ProductInfo&lt;/div&gt;" style="text;strokeColor=none;fillColor=none;align=left;verticalAlign=top;spacingLeft=4;spacingRight=4;overflow=hidden;rotatable=0;points=[[0,0.5],[1,0.5]];portConstraint=eastwest;whiteSpace=wrap;html=1;" vertex="1" parent="XHNnthec9TQgOVZhXkJ_-26">
          <mxGeometry y="26" width="160" height="34" as="geometry" />
        </mxCell>
        <mxCell id="XHNnthec9TQgOVZhXkJ_-28" value="" style="line;strokeWidth=1;fillColor=none;align=left;verticalAlign=middle;spacingTop=-1;spacingLeft=3;spacingRight=3;rotatable=0;labelPosition=right;points=[];portConstraint=eastwest;strokeColor=inherit;" vertex="1" parent="XHNnthec9TQgOVZhXkJ_-26">
          <mxGeometry y="60" width="160" height="8" as="geometry" />
        </mxCell>
        <mxCell id="XHNnthec9TQgOVZhXkJ_-30" value="ProductInfo" style="swimlane;fontStyle=1;align=center;verticalAlign=top;childLayout=stackLayout;horizontal=1;startSize=26;horizontalStack=0;resizeParent=1;resizeParentMax=0;resizeLast=0;collapsible=1;marginBottom=0;whiteSpace=wrap;html=1;" vertex="1" parent="1">
          <mxGeometry x="30" y="-84" width="160" height="138" as="geometry">
            <mxRectangle x="150" y="508" width="80" height="30" as="alternateBounds" />
          </mxGeometry>
        </mxCell>
        <mxCell id="XHNnthec9TQgOVZhXkJ_-31" value="- product ID: int&lt;div&gt;- productName : String&lt;/div&gt;&lt;div&gt;- price : double&lt;/div&gt;&lt;div&gt;- product description : String&lt;/div&gt;&lt;div&gt;- product category :&amp;nbsp;&lt;span style=&quot;font-weight: 700; text-align: center; background-color: transparent; color: light-dark(rgb(0, 0, 0), rgb(255, 255, 255));&quot;&gt;ProductCategory&lt;/span&gt;&lt;/div&gt;" style="text;strokeColor=none;fillColor=none;align=left;verticalAlign=top;spacingLeft=4;spacingRight=4;overflow=hidden;rotatable=0;points=[[0,0.5],[1,0.5]];portConstraint=eastwest;whiteSpace=wrap;html=1;" vertex="1" parent="XHNnthec9TQgOVZhXkJ_-30">
          <mxGeometry y="26" width="160" height="104" as="geometry" />
        </mxCell>
        <mxCell id="XHNnthec9TQgOVZhXkJ_-32" value="" style="line;strokeWidth=1;fillColor=none;align=left;verticalAlign=middle;spacingTop=-1;spacingLeft=3;spacingRight=3;rotatable=0;labelPosition=right;points=[];portConstraint=eastwest;strokeColor=inherit;" vertex="1" parent="XHNnthec9TQgOVZhXkJ_-30">
          <mxGeometry y="130" width="160" height="8" as="geometry" />
        </mxCell>
        <mxCell id="XHNnthec9TQgOVZhXkJ_-38" value="&lt;span style=&quot;font-weight: 700;&quot;&gt;ProductCategory&lt;/span&gt;" style="swimlane;fontStyle=0;childLayout=stackLayout;horizontal=1;startSize=26;fillColor=none;horizontalStack=0;resizeParent=1;resizeParentMax=0;resizeLast=0;collapsible=1;marginBottom=0;whiteSpace=wrap;html=1;" vertex="1" parent="1">
          <mxGeometry x="-50" y="120" width="140" height="90" as="geometry">
            <mxRectangle x="580" y="260" width="140" height="30" as="alternateBounds" />
          </mxGeometry>
        </mxCell>
        <mxCell id="XHNnthec9TQgOVZhXkJ_-39" value="- ELECTRONICS&lt;div&gt;- GROCERIES&lt;/div&gt;&lt;div&gt;- UTENSILS&lt;/div&gt;&lt;div&gt;- CLOTHING&lt;/div&gt;" style="text;strokeColor=none;fillColor=none;align=left;verticalAlign=top;spacingLeft=4;spacingRight=4;overflow=hidden;rotatable=0;points=[[0,0.5],[1,0.5]];portConstraint=eastwest;whiteSpace=wrap;html=1;" vertex="1" parent="XHNnthec9TQgOVZhXkJ_-38">
          <mxGeometry y="26" width="140" height="64" as="geometry" />
        </mxCell>
        <mxCell id="XHNnthec9TQgOVZhXkJ_-42" value="CreditCardInfo" style="swimlane;fontStyle=1;align=center;verticalAlign=top;childLayout=stackLayout;horizontal=1;startSize=26;horizontalStack=0;resizeParent=1;resizeParentMax=0;resizeLast=0;collapsible=1;marginBottom=0;whiteSpace=wrap;html=1;" vertex="1" parent="1">
          <mxGeometry x="500" y="-180" width="160" height="128" as="geometry">
            <mxRectangle x="500" y="-130" width="70" height="30" as="alternateBounds" />
          </mxGeometry>
        </mxCell>
        <mxCell id="XHNnthec9TQgOVZhXkJ_-43" value="- Cvv: int&lt;div&gt;- cardExpiration: LocalDate&lt;/div&gt;&lt;div&gt;- creditCardNumber : int[] Array&lt;/div&gt;&lt;div&gt;- cardName: String&lt;/div&gt;&lt;div&gt;- cardType : CardType&lt;/div&gt;" style="text;strokeColor=none;fillColor=none;align=left;verticalAlign=top;spacingLeft=4;spacingRight=4;overflow=hidden;rotatable=0;points=[[0,0.5],[1,0.5]];portConstraint=eastwest;whiteSpace=wrap;html=1;" vertex="1" parent="XHNnthec9TQgOVZhXkJ_-42">
          <mxGeometry y="26" width="160" height="94" as="geometry" />
        </mxCell>
        <mxCell id="XHNnthec9TQgOVZhXkJ_-44" value="" style="line;strokeWidth=1;fillColor=none;align=left;verticalAlign=middle;spacingTop=-1;spacingLeft=3;spacingRight=3;rotatable=0;labelPosition=right;points=[];portConstraint=eastwest;strokeColor=inherit;" vertex="1" parent="XHNnthec9TQgOVZhXkJ_-42">
          <mxGeometry y="120" width="160" height="8" as="geometry" />
        </mxCell>
        <mxCell id="XHNnthec9TQgOVZhXkJ_-46" value="&lt;span style=&quot;font-weight: 700;&quot;&gt;CardType&lt;/span&gt;" style="swimlane;fontStyle=0;childLayout=stackLayout;horizontal=1;startSize=26;fillColor=none;horizontalStack=0;resizeParent=1;resizeParentMax=0;resizeLast=0;collapsible=1;marginBottom=0;whiteSpace=wrap;html=1;" vertex="1" parent="1">
          <mxGeometry x="760" y="-84" width="140" height="90" as="geometry">
            <mxRectangle x="395" y="240" width="140" height="30" as="alternateBounds" />
          </mxGeometry>
        </mxCell>
        <mxCell id="XHNnthec9TQgOVZhXkJ_-47" value="- MASTER CARD&lt;div&gt;- VISA CARD&lt;/div&gt;&lt;div&gt;- VERVE&lt;/div&gt;&lt;div&gt;- AMERICA EXPRESS&lt;/div&gt;" style="text;strokeColor=none;fillColor=none;align=left;verticalAlign=top;spacingLeft=4;spacingRight=4;overflow=hidden;rotatable=0;points=[[0,0.5],[1,0.5]];portConstraint=eastwest;whiteSpace=wrap;html=1;" vertex="1" parent="XHNnthec9TQgOVZhXkJ_-46">
          <mxGeometry y="26" width="140" height="64" as="geometry" />
        </mxCell>
        <mxCell id="XHNnthec9TQgOVZhXkJ_-48" value="«interface»&lt;br&gt;&lt;b&gt;Users&lt;/b&gt;" style="html=1;whiteSpace=wrap;" vertex="1" parent="1">
          <mxGeometry x="270" y="-470" width="110" height="50" as="geometry" />
        </mxCell>
        <mxCell id="XHNnthec9TQgOVZhXkJ_-51" value="ShoppingCart" style="swimlane;fontStyle=1;align=center;verticalAlign=top;childLayout=stackLayout;horizontal=1;startSize=26;horizontalStack=0;resizeParent=1;resizeParentMax=0;resizeLast=0;collapsible=1;marginBottom=0;whiteSpace=wrap;html=1;" vertex="1" parent="1">
          <mxGeometry x="-230" y="-340" width="160" height="68" as="geometry">
            <mxRectangle x="-40" y="540" width="70" height="30" as="alternateBounds" />
          </mxGeometry>
        </mxCell>
        <mxCell id="XHNnthec9TQgOVZhXkJ_-52" value="- Items : item" style="text;strokeColor=none;fillColor=none;align=left;verticalAlign=top;spacingLeft=4;spacingRight=4;overflow=hidden;rotatable=0;points=[[0,0.5],[1,0.5]];portConstraint=eastwest;whiteSpace=wrap;html=1;" vertex="1" parent="XHNnthec9TQgOVZhXkJ_-51">
          <mxGeometry y="26" width="160" height="34" as="geometry" />
        </mxCell>
        <mxCell id="XHNnthec9TQgOVZhXkJ_-53" value="" style="line;strokeWidth=1;fillColor=none;align=left;verticalAlign=middle;spacingTop=-1;spacingLeft=3;spacingRight=3;rotatable=0;labelPosition=right;points=[];portConstraint=eastwest;strokeColor=inherit;" vertex="1" parent="XHNnthec9TQgOVZhXkJ_-51">
          <mxGeometry y="60" width="160" height="8" as="geometry" />
        </mxCell>
        <mxCell id="XHNnthec9TQgOVZhXkJ_-56" style="edgeStyle=orthogonalEdgeStyle;rounded=0;orthogonalLoop=1;jettySize=auto;html=1;exitX=0.5;exitY=0;exitDx=0;exitDy=0;entryX=0.582;entryY=1.053;entryDx=0;entryDy=0;entryPerimeter=0;" edge="1" parent="1" source="XHNnthec9TQgOVZhXkJ_-14" target="XHNnthec9TQgOVZhXkJ_-48">
          <mxGeometry relative="1" as="geometry" />
        </mxCell>
        <mxCell id="XHNnthec9TQgOVZhXkJ_-58" style="edgeStyle=orthogonalEdgeStyle;rounded=0;orthogonalLoop=1;jettySize=auto;html=1;exitX=1;exitY=0.5;exitDx=0;exitDy=0;entryX=0.022;entryY=0.919;entryDx=0;entryDy=0;entryPerimeter=0;" edge="1" parent="1" source="XHNnthec9TQgOVZhXkJ_-52" target="XHNnthec9TQgOVZhXkJ_-11">
          <mxGeometry relative="1" as="geometry">
            <Array as="points">
              <mxPoint x="-30" y="-297" />
              <mxPoint x="-30" y="-250" />
              <mxPoint x="-20" y="-250" />
              <mxPoint x="-20" y="-270" />
            </Array>
          </mxGeometry>
        </mxCell>
        <mxCell id="XHNnthec9TQgOVZhXkJ_-59" style="edgeStyle=orthogonalEdgeStyle;rounded=0;orthogonalLoop=1;jettySize=auto;html=1;exitX=0;exitY=0.5;exitDx=0;exitDy=0;entryX=1.015;entryY=0.817;entryDx=0;entryDy=0;entryPerimeter=0;" edge="1" parent="1" source="XHNnthec9TQgOVZhXkJ_-22" target="XHNnthec9TQgOVZhXkJ_-11">
          <mxGeometry relative="1" as="geometry" />
        </mxCell>
        <mxCell id="XHNnthec9TQgOVZhXkJ_-63" style="edgeStyle=orthogonalEdgeStyle;rounded=0;orthogonalLoop=1;jettySize=auto;html=1;exitX=0.018;exitY=0.316;exitDx=0;exitDy=0;entryX=0.992;entryY=0.784;entryDx=0;entryDy=0;entryPerimeter=0;exitPerimeter=0;" edge="1" parent="1" source="XHNnthec9TQgOVZhXkJ_-31" target="XHNnthec9TQgOVZhXkJ_-27">
          <mxGeometry relative="1" as="geometry">
            <Array as="points">
              <mxPoint x="-30" y="-25" />
              <mxPoint x="-30" y="-50" />
              <mxPoint y="-50" />
              <mxPoint y="-157" />
            </Array>
          </mxGeometry>
        </mxCell>
        <mxCell id="XHNnthec9TQgOVZhXkJ_-65" style="edgeStyle=orthogonalEdgeStyle;rounded=0;orthogonalLoop=1;jettySize=auto;html=1;exitX=0;exitY=0.5;exitDx=0;exitDy=0;entryX=0.033;entryY=0.801;entryDx=0;entryDy=0;entryPerimeter=0;" edge="1" parent="1" source="XHNnthec9TQgOVZhXkJ_-38" target="XHNnthec9TQgOVZhXkJ_-31">
          <mxGeometry relative="1" as="geometry" />
        </mxCell>
        <mxCell id="XHNnthec9TQgOVZhXkJ_-66" style="edgeStyle=orthogonalEdgeStyle;rounded=0;orthogonalLoop=1;jettySize=auto;html=1;exitX=0;exitY=0.5;exitDx=0;exitDy=0;entryX=1.004;entryY=0.817;entryDx=0;entryDy=0;entryPerimeter=0;" edge="1" parent="1" source="XHNnthec9TQgOVZhXkJ_-43" target="XHNnthec9TQgOVZhXkJ_-23">
          <mxGeometry relative="1" as="geometry" />
        </mxCell>
        <mxCell id="XHNnthec9TQgOVZhXkJ_-67" style="edgeStyle=orthogonalEdgeStyle;rounded=0;orthogonalLoop=1;jettySize=auto;html=1;exitX=0;exitY=0.5;exitDx=0;exitDy=0;entryX=1;entryY=0.837;entryDx=0;entryDy=0;entryPerimeter=0;" edge="1" parent="1" source="XHNnthec9TQgOVZhXkJ_-46" target="XHNnthec9TQgOVZhXkJ_-43">
          <mxGeometry relative="1" as="geometry" />
        </mxCell>
      </root>
    </mxGraphModel>
  </diagram>
</mxfile>
